<svg fill="none" height="43" viewBox="0 0 303 43" width="303" xmlns="http://www.w3.org/2000/svg"><path clip-rule="evenodd" d="m151.5.593933c-7.422 0-13.437 5.916137-13.437 13.211667 0 7.2955 6.015 13.2116 13.437 13.2116s13.44-5.9161 13.44-13.2116c0-7.29553-6.018-13.211667-13.44-13.211667zm6.477 13.456067h-5.018v5.6135l2.685-1.2542-1.083-.9778 3.233-1.5132-.347 3.5444-5.947 2.7791-5.947-2.7791-.347-3.5444 3.236 1.5132-1.084.9778 2.686 1.2542v-5.6135h-5.018l-.154-1.5656h13.256zm.228-2.3571h-13.41l-.486-4.98203 3.864 1.80423-1.19 1.07381 1.666 1.50159 1.696-1.53069-1.32-1.19021 2.475-2.23493 2.475 2.23493-1.318 1.19021 1.697 1.53069 1.663-1.50159-1.187-1.07381 3.864-1.80423zm-27.383 24.4677h-.838c-.121-1.2921-.906-1.9526-2.173-1.9526-1.654 0-2.625.9661-2.625 2.9624 0 1.7024.882 2.9624 2.625 2.9624 1.072 0 2.008-.6606 2.008-1.8217h1.036c0 1.8014-1.445 2.5172-3.047 2.5172-2.406 0-3.664-1.3764-3.664-3.655s1.258-3.655 3.664-3.655c.652 0 1.744.2939 2.153.9865h.023v-.8789h.838zm-37.1018 3.8616h-1.1042v.6955h3.1735v-.6955h-1.1042v-2.3949h.8615c1.3706 0 1.492.2502 1.8768 1.519l.4855 1.5714h1.6104v-.6955h-.8377l-.3079-1.0418c-.059-.1537-.1066-.3045-.1523-.4491-.0736-.2329-.1421-.4496-.2444-.6363-.1658-.2939-.4204-.5093-.9266-.5646v-.0232c1.0391-.0873 1.6341-.7683 1.6341-1.7781 0-1.8217-1.5334-1.909-3.0018-1.909h-3.0669v.6955h1.1042zm1.7762-3.0933h-.8052v-2.6133h.8052c.9592 0 2.1522 0 2.1522 1.2135 0 1.3998-1.0598 1.3998-2.1522 1.3998zm-94.9964-.3564h75v1h-75zm227 0h75v1h-75zm-124.999-.9124c1.634 0 2.637.9661 2.637 2.5812s-1.003 2.5812-2.637 2.5812c-1.635 0-2.6825-.9661-2.6825-2.5812.003-1.6151 1.0505-2.5812 2.6825-2.5812zm0 4.4698c1.136 0 1.666-.8672 1.666-1.8886s-.53-1.8886-1.666-1.8886c-1.137 0-1.711.8672-1.711 1.8886s.577 1.8886 1.711 1.8886zm8.351-3.6667h.547v-.6955h-2.371v.6955h.971l-1.424 3.3204-1.444-3.3204h.973v-.6955h-2.516v.6955h.551l1.954 4.2516c-.071.1339-.127.2692-.181.3984-.183.4384-.336.8064-.924.8064-.118 0-.232-.0129-.343-.0253l-.039-.0043c-.05-.0056-.099-.0107-.147-.0141v.6723c.23.032.464.064.695.064 1.019 0 1.266-.5751 1.625-1.4104l.009-.0214zm4.579 3.2331h-.02c-.222.7799-.883 1.1291-1.688 1.1291-1.003 0-1.974-.4219-1.974-1.5307 0-1.5074 1.501-1.5947 2.714-1.5947h.971v-.2939c0-.7915-.42-1.0534-1.213-1.0534-.684 0-1.247.1397-1.315.8468h-.971c.065-1.1378 1.081-1.5394 2.164-1.5394 1.193 0 2.241.2502 2.241 1.5307v2.8314h.882v.6955h-1.788v-1.0214zm-1.598.4336c1.113 0 1.598-.7915 1.598-1.7344h-.76c-.652 0-1.954 0-1.954.8992 0 .6519.574.8352 1.116.8352zm4.89-.1077h-.87-.003v.6955h2.649v-.6955h-.87v-6.4021h-1.776v.6955h.87zm16.551-.3259h.021.003v1.0214h1.788v-.6955h-.882v-2.8314c0-1.2805-1.048-1.5307-2.241-1.5307-1.083 0-2.099.4016-2.164 1.5394h.971c.068-.7071.631-.8468 1.314-.8468.794 0 1.214.2619 1.214 1.0534v.2939h-.971c-1.214 0-2.715.0873-2.715 1.5947 0 1.1088.971 1.5307 1.975 1.5307.805 0 1.465-.3492 1.687-1.1291zm.018-1.3008c0 .9429-.485 1.7344-1.598 1.7344-.539 0-1.113-.1833-1.116-.8352 0-.8992 1.302-.8992 1.953-.8992zm2.247 1.6267h.873v-3.559h-.873v-.6955h1.776v1.0098h.021c.154-.7478.784-1.1174 1.545-1.1174.139 0 .247.0081.35.0159l.059.0044v.7276c-.023-.0033-.048-.007-.073-.0109-.131-.0199-.293-.0444-.469-.0444-1.27 0-1.436 1.3124-1.436 2.3222v1.3473h1.036v.6955h-2.815v-.6955zm5.222 0h-.87-.003v.6955h2.649v-.6955h-.87v-4.2545h-1.776v.6955h.87zm-.13-5.3806h1.036v-1.0186h-1.036zm2.578 5.3806h.882v-5.7066h-.882v-.6955h1.788v3.0469h.021c.287-.6403 1.06-1.0098 1.744-1.0098 1.557 0 2.483.9981 2.483 2.5812 0 1.551-.882 2.5812-2.483 2.5812-.708 0-1.501-.39-1.744-1.1175h-.021v1.0098h-1.788zm3.553.1077c.959 0 1.512-.7711 1.512-1.8886 0-.9982-.529-1.8886-1.512-1.8886-1.226 0-1.765.8904-1.765 1.8886-.003 1.1175.56 1.8886 1.765 1.8886zm3.747-.1077h-.882v.6897h1.788v-1.0098h.021c.243.7275 1.036 1.1175 1.744 1.1175 1.601 0 2.483-1.0302 2.483-2.5812 0-1.5831-.926-2.5812-2.483-2.5812-.684 0-1.457.3695-1.744 1.0098h-.021v-3.0469h-1.788v.6955h.882zm4.183-1.7809c0 1.1175-.553 1.8886-1.512 1.8886-1.205 0-1.768-.7711-1.765-1.8886 0-.9982.539-1.8886 1.765-1.8886.983 0 1.512.8904 1.512 1.8886zm2.685.2532c.002 1.1357.653 1.6354 1.833 1.6354.574 0 1.368-.3143 1.424-.9545h.838c-.033 1.2135-1.324 1.65-2.383 1.65-1.635 0-2.683-.9661-2.683-2.5812s1.048-2.5812 2.683-2.5812c1.788 0 2.415 1.2484 2.427 2.8315zm3.233-.6955c-.056-.8992-.607-1.4434-1.59-1.4434-.87 0-1.643.5325-1.643 1.4434zm5.385 1.8973h.021.003v1.0214h1.788v-.6955h-.882v-2.8314c0-1.2805-1.048-1.5307-2.241-1.5307-1.084 0-2.099.4016-2.164 1.5394h.971c.068-.7071.63-.8468 1.314-.8468.793 0 1.214.2619 1.214 1.0534v.2939h-.971c-1.214 0-2.715.0873-2.715 1.5947 0 1.1088.971 1.5307 1.975 1.5307.805 0 1.465-.3492 1.687-1.1291zm.021-1.3008c0 .9429-.489 1.7344-1.602 1.7344-.542 0-1.113-.1833-1.113-.8352 0-.8992 1.303-.8992 1.954-.8992zm2.241 1.6267h.873v-3.559h-.873v-.6955h1.776v.8993h.021c.242-.6286.938-1.0098 1.687-1.0098 1.258 0 1.788.6169 1.788 1.8013v2.5608h.87v.6955h-2.649v-.6926h.87v-2.3746c0-.7915-.275-1.292-1.157-1.292-.971 0-1.436.6722-1.436 1.551v2.1156h.87v.6955h-2.649v-.6955zm15.447-3.8732h.826v-2.5231h-.838v.8905h-.021c-.364-.6606-1.323-.9981-2.051-.9981-2.407 0-3.665 1.3764-3.665 3.655s1.258 3.655 3.665 3.655c.781 0 1.663-.4656 2.084-1.1174h.02v1.0098h.906v-2.7995h.983v-.6955h-3.099v.6955h1.225c.009 1.2571-.796 2.2116-2.119 2.2116-1.744 0-2.626-1.26-2.626-2.9624 0-1.9963.971-2.9624 2.626-2.9624 1.267 0 1.995.7042 2.084 1.941zm2.445 3.8732h.873v-3.559h-.873v-.6955h1.776v1.0098h.021c.154-.7478.784-1.1174 1.545-1.1174.139 0 .247.0081.349.0159l.06.0044v.7276c-.023-.0033-.048-.007-.073-.0109-.131-.0199-.293-.0444-.469-.0444-1.27 0-1.436 1.3124-1.436 2.3222v1.3473h1.036v.6955h-2.815v-.6955zm9.464-1.7809c0-1.6151-1.003-2.5812-2.638-2.5812-1.634 0-2.682.9661-2.682 2.5812s1.048 2.5812 2.682 2.5812c1.635 0 2.638-.9661 2.638-2.5812zm-.971 0c0 1.0214-.53 1.8886-1.667 1.8886-1.136 0-1.711-.8672-1.711-1.8886s.575-1.8886 1.711-1.8886c1.137 0 1.667.8672 1.667 1.8886zm6.616 1.7809h.868v.6955h-1.776v-.8555h-.021c-.198.6082-.915.9661-1.643.9661-1.303 0-1.833-.6402-1.833-1.8013v-2.5608h-.87v-.6955h1.776v3.0701c0 .7915.255 1.292 1.158 1.292.983 0 1.436-.6518 1.436-1.551v-2.1156h-.871v-.6955h1.776zm1.972 1.7897h-.882v.6926h2.67v-.6955h-.882v-2.0487h.021c.331.7043.959 1.0622 1.743 1.0622 1.602 0 2.484-1.0301 2.484-2.5812 0-1.5831-.927-2.5812-2.484-2.5812-.829 0-1.489.4539-1.743 1.0942h-.021v-.9866h-1.788v.6955h.882zm4.183-3.5706c0 1.1175-.554 1.8886-1.513 1.8886-1.202 0-1.764-.7711-1.764-1.8886 0-.9982.539-1.8886 1.764-1.8886.983 0 1.513.8904 1.513 1.8886zm-45.036-12.909c0-.6373-.485-1.1233-1.136-1.1233-.669 0-1.137.486-1.137 1.1233 0 .6344.468 1.1495 1.137 1.1495s1.136-.5151 1.136-1.1495zm-.094 0c0 .5907-.427 1.0738-1.042 1.0738-.619 0-1.042-.4831-1.042-1.0738 0-.5937.423-1.0447 1.042-1.0447.612 0 1.042.451 1.042 1.0447zm-.951-.5529h-.509v1.1087h.095v-.4569h.385l.305.4569h.1l-.307-.4598c.186-.0262.299-.1571.299-.3288 0-.1921-.128-.3201-.368-.3201zm-.414.5762v-.4976h.409c.183 0 .278.0989.278.2415 0 .1455-.095.2561-.278.2561z" fill="#fff" fill-rule="evenodd"/></svg>