<svg fill="none" height="91" viewBox="0 0 303 91" width="303" xmlns="http://www.w3.org/2000/svg"><g fill="#fff"><path d="m92.616 40.0253h1.1042v-5.7066h-1.1042v-.6955h3.0669c1.4684 0 3.0018.0873 3.0018 1.909 0 1.0098-.595 1.6907-1.6341 1.778v.0233c.5062.0553.7608.2706.9266.5645.1658.3027.2427.6839.3967 1.0855l.3079 1.0418h.8377v.6955h-1.6104l-.4855-1.5714c-.3848-1.2688-.5062-1.5191-1.8768-1.5191h-.8615v2.395h1.1042v.6955h-3.1735zm2.0752-3.0934h.8052c1.0924 0 2.1522 0 2.1522-1.3997 0-1.2135-1.193-1.2135-2.1522-1.2135h-.8052z"/><path d="m102.501 35.6631c1.634 0 2.637.9662 2.637 2.5812 0 1.6151-1.003 2.5813-2.637 2.5813-1.635 0-2.6825-.9662-2.6825-2.5813.003-1.615 1.0505-2.5812 2.6825-2.5812zm0 4.4699c1.136 0 1.666-.8672 1.666-1.8887 0-1.0214-.53-1.8886-1.666-1.8886-1.137 0-1.711.8672-1.711 1.8886 0 1.0215.577 1.8887 1.711 1.8887z"/><path d="m111.402 36.4663h-.55l-2.064 4.7172c-.364.8468-.607 1.4317-1.634 1.4317-.231 0-.465-.032-.695-.064v-.6722c.165.0116.343.0436.529.0436.761 0 .794-.6169 1.105-1.2047l-1.954-4.2516h-.551v-.6955h2.516v.6955h-.973l1.444 3.3204 1.424-3.3204h-.971v-.6955h2.371v.6955z"/><path d="m115.411 39.6994c-.222.7799-.883 1.1291-1.688 1.1291-1.003 0-1.974-.422-1.974-1.5307 0-1.5074 1.501-1.5947 2.714-1.5947h.971v-.2939c0-.7916-.42-1.0535-1.213-1.0535-.684 0-1.247.1397-1.315.8468h-.971c.065-1.1378 1.081-1.5394 2.164-1.5394 1.193 0 2.241.2503 2.241 1.5307v2.8315h.882v.6955h-1.788v-1.0214zm-1.578.4336c1.113 0 1.598-.7916 1.598-1.7344h-.76c-.652 0-1.954 0-1.954.8992 0 .6518.574.8352 1.116.8352z"/><path d="m118.723 40.0253v-5.7066h-.87v-.6955h1.776v6.4021h.87v.6955h-2.649v-.6955z"/><path d="m130.822 36.1637h-.838c-.121-1.2921-.906-1.9527-2.173-1.9527-1.654 0-2.625.9661-2.625 2.9624 0 1.7024.882 2.9625 2.625 2.9625 1.072 0 2.008-.6606 2.008-1.8217h1.036c0 1.8013-1.445 2.5172-3.047 2.5172-2.406 0-3.664-1.3765-3.664-3.655 0-2.2786 1.258-3.6551 3.664-3.6551.652 0 1.744.2939 2.153.9865h.023v-.8788h.838z"/><path d="m135.274 39.6994c-.222.7799-.882 1.1291-1.687 1.1291-1.004 0-1.975-.422-1.975-1.5307 0-1.5074 1.501-1.5947 2.715-1.5947h.971v-.2939c0-.7916-.42-1.0535-1.214-1.0535-.683 0-1.246.1397-1.314.8468h-.971c.065-1.1378 1.081-1.5394 2.164-1.5394 1.193 0 2.241.2503 2.241 1.5307v2.8315h.882v.6955h-1.788v-1.0214zm-1.58.4336c1.113 0 1.598-.7916 1.598-1.7344h-.761c-.651 0-1.953 0-1.953.8992.003.6518.577.8352 1.116.8352z"/><path d="m138.412 40.0253v-3.559h-.873v-.6955h1.776v1.0098h.021c.154-.7479.784-1.1175 1.545-1.1175.166 0 .287.0117.409.0204v.7275c-.142-.0204-.332-.0553-.542-.0553-1.27 0-1.436 1.3125-1.436 2.3222v1.3474h1.036v.6955h-2.815v-.6955z"/><path d="m142.761 40.0253v-3.559h-.87v-.6955h1.776v4.2545h.87v.6955h-2.649v-.6955zm.906-5.3807h-1.036v-1.0185h1.036z"/><path d="m145.209 40.0253h.882v-5.7066h-.882v-.6955h1.788v3.0468h.021c.287-.6402 1.06-1.0098 1.744-1.0098 1.557 0 2.483.9982 2.483 2.5812 0 1.5511-.882 2.5813-2.483 2.5813-.708 0-1.501-.39-1.744-1.1175h-.021v1.0098h-1.788zm3.553.1077c.959 0 1.512-.7712 1.512-1.8887 0-.9981-.529-1.8886-1.512-1.8886-1.226 0-1.765.8905-1.765 1.8886-.003 1.1175.56 1.8887 1.765 1.8887z"/><path d="m151.627 40.0253h.882v-5.7066h-.882v-.6955h1.788v3.0468h.021c.287-.6402 1.06-1.0098 1.744-1.0098 1.557 0 2.483.9982 2.483 2.5812 0 1.5511-.882 2.5813-2.483 2.5813-.708 0-1.501-.39-1.744-1.1175h-.021v1.0098h-1.788zm3.553.1077c.959 0 1.512-.7712 1.512-1.8887 0-.9981-.529-1.8886-1.512-1.8886-1.226 0-1.765.8905-1.765 1.8886-.003 1.1175.56 1.8887 1.765 1.8887z"/><path d="m159.377 38.4946c0 1.1378.652 1.6384 1.833 1.6384.574 0 1.368-.3143 1.424-.9545h.838c-.033 1.2135-1.324 1.65-2.383 1.65-1.635 0-2.683-.9662-2.683-2.5812 0-1.6151 1.048-2.5813 2.683-2.5813 1.788 0 2.415 1.2484 2.427 2.8315h-4.139zm3.233-.6926c-.056-.8992-.607-1.4434-1.59-1.4434-.87 0-1.643.5326-1.643 1.4434z"/><path d="m167.995 39.6994c-.222.7799-.882 1.1291-1.687 1.1291-1.004 0-1.975-.422-1.975-1.5307 0-1.5074 1.501-1.5947 2.715-1.5947h.971v-.2939c0-.7916-.421-1.0535-1.214-1.0535-.684 0-1.246.1397-1.314.8468h-.971c.065-1.1378 1.08-1.5394 2.164-1.5394 1.193 0 2.241.2503 2.241 1.5307v2.8315h.882v.6955h-1.788v-1.0214zm-1.581.4336c1.113 0 1.602-.7916 1.602-1.7344h-.761c-.651 0-1.954 0-1.954.8992 0 .6518.571.8352 1.113.8352z"/><path d="m171.13 40.0253v-3.559h-.873v-.6955h1.776v.8992h.021c.242-.6286.938-1.0098 1.687-1.0098 1.258 0 1.788.6169 1.788 1.8013v2.5609h.87v.6955h-2.649v-.6926h.87v-2.3746c0-.7915-.275-1.2921-1.157-1.2921-.971 0-1.436.6723-1.436 1.5511v2.1156h.87v.6955h-2.649v-.6955z"/><path d="m186.533 36.152h-.829c-.089-1.2368-.817-1.941-2.084-1.941-1.655 0-2.626.9661-2.626 2.9624 0 1.7024.882 2.9625 2.626 2.9625 1.323 0 2.128-.9545 2.119-2.2117h-1.225v-.6955h3.099v.6955h-.983v2.7995h-.906v-1.0098h-.02c-.421.6519-1.303 1.1175-2.084 1.1175-2.407 0-3.665-1.3765-3.665-3.655 0-2.2786 1.258-3.6551 3.665-3.6551.728 0 1.687.3376 2.051.9982h.021v-.8905h.838v2.523z"/><path d="m189.022 40.0253v-3.559h-.873v-.6955h1.776v1.0098h.021c.154-.7479.784-1.1175 1.545-1.1175.166 0 .287.0117.409.0204v.7275c-.142-.0204-.332-.0553-.542-.0553-1.27 0-1.436 1.3125-1.436 2.3222v1.3474h1.036v.6955h-2.815v-.6955z"/><path d="m194.975 35.6631c1.635 0 2.638.9662 2.638 2.5812 0 1.6151-1.003 2.5813-2.638 2.5813-1.634 0-2.682-.9662-2.682-2.5813 0-1.615 1.048-2.5812 2.682-2.5812zm0 4.4699c1.137 0 1.667-.8672 1.667-1.8887 0-1.0214-.53-1.8886-1.667-1.8886-1.136 0-1.711.8672-1.711 1.8886 0 1.0215.575 1.8887 1.711 1.8887z"/><path d="m203.255 40.0253h.871v.6955h-1.776v-.8556h-.021c-.198.6082-.915.9662-1.643.9662-1.303 0-1.833-.6402-1.833-1.8013v-2.5609h-.87v-.6955h1.776v3.0701c0 .7915.255 1.2921 1.158 1.2921.983 0 1.436-.6519 1.436-1.5511v-2.1156h-.871v-.6955h1.776v4.2516z"/><path d="m204.348 41.815h.882v-5.3487h-.882v-.6955h1.788v.9865h.021c.254-.6402.914-1.0942 1.743-1.0942 1.557 0 2.484.9982 2.484 2.5812 0 1.5511-.882 2.5813-2.484 2.5813-.784 0-1.412-.358-1.743-1.0622h-.021v2.0487h.882v.6955h-2.67zm3.552-1.682c.959 0 1.513-.7712 1.513-1.8887 0-.9981-.53-1.8886-1.513-1.8886-1.225 0-1.764.8905-1.764 1.8886 0 1.1175.562 1.8887 1.764 1.8887z"/><path d="m151.5.596985c-7.422 0-13.437 5.916135-13.437 13.211615 0 7.2955 6.015 13.2117 13.437 13.2117s13.44-5.9162 13.44-13.2117c0-7.29548-6.018-13.211615-13.44-13.211615zm6.477 13.456115h-5.018v5.6135l2.685-1.2543-1.083-.9777 3.233-1.5133-.347 3.5445-5.947 2.7791-5.947-2.7791-.347-3.5445 3.236 1.5133-1.084.9777 2.686 1.2543v-5.6135h-5.018l-.154-1.5656h13.256zm.228-2.3572h-13.41l-.486-4.98198 3.864 1.80423-1.19 1.07381 1.666 1.50154 1.696-1.53064-1.32-1.19021 2.475-2.23492 2.475 2.23492-1.318 1.19021 1.697 1.53064 1.663-1.50154-1.187-1.07381 3.864-1.80423z"/><path d="m163.241 24.2121c.651 0 1.136.4859 1.136 1.1232 0 .6344-.467 1.1495-1.136 1.1495s-1.137-.5151-1.137-1.1495c0-.6373.468-1.1232 1.137-1.1232zm0 2.1971c.615 0 1.042-.4831 1.042-1.0739 0-.5936-.43-1.0447-1.042-1.0447-.619 0-1.042.4511-1.042 1.0447 0 .5908.423 1.0739 1.042 1.0739zm-.418-1.6268h.509c.24 0 .368.1281.368.3201 0 .1717-.113.3027-.299.3289l.307.4598h-.1l-.305-.4569h-.385v.4569h-.095zm.095.0786v.4976h.409c.183 0 .278-.1106.278-.2561 0-.1425-.095-.2415-.278-.2415z"/><path d="m89.3202 83.5853h-66.7837v.4221h66.7837z"/><path d="m90.4157 90.7184h-89.9157v-22.2857h89.9157zm-89.494352-.4221h89.073052v-21.4415h-89.073052z"/><path d="m22.7472 90.7184h-22.2472v-22.2857h22.2472zm-21.825852-.4221h21.404452v-21.4415h-21.404452z"/><path d="m90.4157 90.7184h-68.0899v-7.1753h68.0899zm-67.6685-.4221h67.2472v-6.3311h-67.2472z"/><path d="m26.3287 85.7379h.4213v2.9967h-.4213z"/><path d="m29.8258 85.7379h.5899l1.3062 2.4058v-2.4058h.4214v2.9967h-.5478l-1.3483-2.448v2.448h-.4214z"/><path d="m35.8511 86.1178h-.9691v-.3799h2.3174v.3799h-.9269v2.6168h-.4214z"/><path d="m39.9382 85.7379h1.6854v.3799h-1.2219v.8863h1.1376v.3799h-1.1376v.9708h1.2219v.3798h-1.6854z"/><path d="m45.3315 85.7379c.5898 0 1.1797.0844 1.1797.8019 0 .3799-.2528.6332-.632.6754.1264.0422.2107.1266.295.2954l.5477 1.1818h-.5056l-.4635-1.0552c-.1264-.2954-.2949-.2954-.5056-.2954h-.2528v1.3506h-.4214v-2.9545zm-.295 1.3084h.3792c.4214 0 .6321-.1688.6321-.4643 0-.2532-.2107-.422-.5899-.422h-.4214z"/><path d="m49.5871 85.7379h.5477l1.3483 2.4058v-2.4058h.4214v2.9967h-.5478l-1.3483-2.448v2.448h-.4213z"/><path d="m55.9494 85.7379h.4635l1.2641 2.9967h-.4635l-.295-.7597h-1.4747l-.2949.7597h-.4635zm.2107.4221-.5899 1.4772h1.1798z"/><path d="m60.6685 86.1178h-.9269v-.3799h2.3174v.3799h-.9691v2.6168h-.4214z"/><path d="m64.7978 85.7379h.4213v2.9967h-.4213z"/><path d="m69.559 85.6957c.9269 0 1.4326.6753 1.4326 1.5617 0 .9285-.5478 1.5617-1.4326 1.5617-.927 0-1.4326-.6332-1.4326-1.5617 0-.8864.5478-1.5617 1.4326-1.5617zm0 2.7013c.6741 0 .9691-.5909.9691-1.1818s-.3371-1.1819-.9691-1.1819c-.6742 0-.9691.5487-.9691 1.1819 0 .6331.2949 1.1818.9691 1.1818z"/><path d="m73.941 85.7379h.5899l1.3062 2.4058v-2.4058h.4635v2.9967h-.5478l-1.3904-2.448v2.448h-.4214z"/><path d="m80.3034 85.7379h.4635l1.264 2.9967h-.4635l-.2949-.7597h-1.4747l-.295.7597h-.4635zm.2106.4221-.5898 1.4772h1.1797z"/><path d="m84.7697 85.7379h.4213v2.6169h1.2641v.3798h-1.6854z"/><path d="m11.6657 71.7671c.8006.7598 1.6433 1.5617 2.4017 2.3637l-.8848 1.1396v.0422l2.3595 1.0552 1.6012-1.0974-.9691-1.0552v-.0844c.9691-.6754 1.8118-1.3507 2.7809-2.026l-.5057 4.7695h-13.65165l-.46348-4.7695c.9691.6331 1.8118 1.3084 2.7809 2.026v.0844l-.9691 1.0552 1.60112 1.0974 2.35951-1.0552v-.0422l-.88479-1.1396c.75843-.802 1.64329-1.6039 2.40169-2.3637z"/><path d="m18.3652 77.7184-.1686 1.6039h-5.0562v5.487h2.486c.5478 0 1.1376-.5909 1.0112-.9708-.1264-.5487-.632-.9285-1.0955-1.1818.0843 0 1.7697-1.2662 2.5703-1.7727-.0422.3377-.5899 4.8117-.5899 4.8961l-5.8568 2.237h-.0842l-5.85678-2.2792c0-.0844-.58989-4.5584-.58989-4.8961.80056.5487 2.48596 1.7727 2.57023 1.7727-.46349.2955-.96911.6331-1.09551 1.1818-.1264.3799.46348.9708 1.01124.9708h2.48591v-5.487h-5.05614l-.16854-1.5617z"/><path d="m26.2865 74.8905c0-1.5617-.0421-1.8149-1.1798-1.8994v-.1266l2.486-.0844c2.5702-.0844 2.7809 1.1818 2.7809 1.6461 0 .8442-.5478 1.3507-1.264 1.6883l.0421.0844c.8005 1.3929 1.7696 3.1234 3.455 3.5033l-.0842.0844c-1.0955-.0422-1.8961 0-2.486-.6331-.6741-.7176-1.2219-1.6039-1.4326-2.026-.4213-.8442-.7584-.5909-1.4747-.7175v1.6461c0 1.1396 0 1.3084 1.4326 1.5195v.1688h-3.5815v-.1688c1.2219-.1689 1.2219-.4643 1.2641-1.5195v-3.1656zm.8848 1.3084c.9691 0 2.1068-.4643 2.1068-1.6039 0-1.1818-1.0534-1.6883-2.1068-1.6461z"/><path d="m34.0393 79.8288c-1.3904 0-2.5281-.8864-2.5281-2.3214 0-1.3929 1.1377-2.3637 2.5281-2.3637 1.3905 0 2.486.8864 2.486 2.3215.0421 1.3506-1.1377 2.3636-2.486 2.3636zm0-4.5162c-1.0955 0-1.559 1.1396-1.559 2.0682 0 .9707.5478 2.1948 1.6433 2.1948 1.0112 0 1.4747-1.1819 1.4747-2.0682 0-.9286-.4635-2.1948-1.559-2.1948z"/><path d="m36.9045 76.1145c-.1685-.4643-.2107-.5487-.7163-.6331v-.1688h2.1067v.1688c-.7584.0422-.5898.5065-.3792 1.013l1.0113 2.6169.632-1.8572c.4635-1.3084.5477-1.6883-.2107-1.7727v-.1688h1.7697v.1688c-.4635.0422-.5899.2532-.8006.6331l-.4213.9708-1.559 3.9675c-.3792.9708-.632 1.2663-1.0534 1.2663-.2949 0-.5056-.2111-.5056-.5065 0-.2111.1264-.4221.3371-.4643.0842.0422.4213.2954.5477.2954.2107 0 .4214-.5487.4635-.7175l.3371-.8019z"/><path d="m43.1404 77.1697c.0843-1.0974-.2106-1.5617-1.0112-1.5617-.7163 0-.632.3377-.632.8864l-.5056.0422c-.0843 0-.2528 0-.2528-.0844 0-.2955 1.1376-1.3507 1.9382-1.3507.9269 0 1.2219.7176 1.2219 1.5195v1.4351c0 .8863-.0843 1.4772.8848 1.3084v.2111c-.3792.1266-.7163.1266-1.0112.1266-.4214 0-.5899-.2533-.6321-.6331-.337.3798-.7584.6753-1.3061.6753-.6321 0-1.0113-.5487-1.0113-1.1818 0-.1689 0-.2955.0422-.4643zm-1.3904.9286c-.0421.1266-.0843.2532-.0843.4221 0 .422.2528.8019.7163.8019.295 0 .5478-.1688.7163-.3799v-1.5616z"/><path d="m44.3624 79.7022v-.2533c.7163-.0844.8005-.2532.8005-.9285v-4.3474c0-.4221 0-.5487-.5056-.9286v-.0844l1.1798-.4643.1264.0422v5.7825c0 .8441.0421.9285.8005 1.0129v.1689z"/><path d="m56.3708 77.1697c.0843-1.0974-.2107-1.5617-1.0113-1.5617-.7162 0-.632.3377-.632.8864l-.5056.0422c-.0843 0-.2528 0-.2528-.0844 0-.2955 1.1376-1.3507 1.9382-1.3507.927 0 1.2219.7176 1.2219 1.5195v1.4351c0 .8863-.0843 1.5195.8848 1.3084v.2111c-.3792.1266-.7162.1266-1.0112.1266-.4213 0-.5899-.2533-.632-.6331-.3371.3798-.7584.6753-1.3062.6753-.632 0-1.0112-.5487-1.0112-1.1818 0-.1689 0-.2955.0421-.4643zm-1.3905.9286c-.0421.1266-.0842.2532-.0842.4221 0 .422.2528.8019.7163.8019.2949 0 .5477-.1688.7163-.3799v-1.5616z"/><path d="m53.3792 74.8483h-.1685c-.2107-1.1396-.8849-1.9838-2.1068-1.9838-1.8539 0-2.9073 1.5195-2.9073 3.2922 0 2.026 1.559 3.4189 3.0337 3.4189 1.3484 0 1.854-.9708 2.3175-2.0682l.1264.0422c-.1264.6331-.3371 1.224-.5478 1.8149-.632.3377-1.3483.4221-2.0646.4221-2.1489 0-4.0449-1.224-4.0449-3.5455 0-1.8149 1.4325-3.672 4.1292-3.672.7584 0 1.559.1688 2.2331.5487z"/><path d="m80.5983 77.1697c.0843-1.0974-.2107-1.5617-1.0112-1.5617-.7163 0-.6321.3377-.6321.8864l-.5056.0422c-.0842 0-.2528 0-.2528-.0844 0-.2955 1.1377-1.3507 1.9382-1.3507.927 0 1.2219.7176 1.2219 1.5195v1.4351c0 .8863-.1264 1.4773.8006 1.435v.1689c-.3792.1266-.632.0844-.927.0844-.4213 0-.5899-.2533-.632-.6331-.3371.3798-.7584.6753-1.3062.6753-.6741 0-1.0112-.5487-1.0112-1.1818 0-.1689 0-.2955.0421-.4643zm-1.3483.9286c-.0421.1266-.0843.2532-.0843.4221 0 .422.2528.8019.7163.8019.295 0 .5478-.1688.7163-.3799v-1.5616z"/><path d="m59.1517 78.5204c0 .8441.0421.9285 1.0112 1.0129v.1689h-2.5702v-.2533c.6742-.0422.7163-.211.7584-1.013v-1.8571c0-.4221 0-.5487-.5056-.9286v-.0844l1.2219-.4643.1264.0422-.0421 1.2241c.2107-.5487.8005-1.2663 1.4326-1.2663.2949 0 .5056.1689.5056.4643 0 .2955-.295.5487-.5478.6331-.1685-.1266-.4213-.3376-.632-.3376-.8848.0844-.8005 1.4772-.8005 1.6461v1.013z"/><path d="m61.4691 79.7022v-.1689c.7584-.1266.8006-.2532.8006-1.0129v-1.9416c0-.4221 0-.5487-.6321-.9286v-.0844l1.3062-.4643.1264.0422v3.3767c0 .8441.0422.9285.8006 1.0129v.1689zm1.6433-6.3312c0 .2955-.2529.5065-.5057.5065-.2949 0-.5056-.2532-.5056-.5065 0-.2954.2528-.5065.5056-.5065s.5057.2533.5057.5065z"/><path d="m64.2079 74.173c0-.4221 0-.5487-.5057-.9286v-.0844l1.1798-.4643.1264.0422v2.9123c.5056-.2954 1.1377-.5909 1.6854-.5909 1.1377 0 1.9382 1.0552 1.9382 2.1104 0 1.815-1.6432 2.6169-2.7809 2.6169-.632 0-1.0533-.1688-1.6432-.4221zm.7584 3.461c0 .9708.0843 1.8571 1.3062 1.8571.5477 0 1.4747-.4642 1.4747-1.8571 0-1.224-.8006-2.026-1.8118-2.026-.3371 0-.632.0844-.9691.2111z"/><path d="m69.0955 74.173c0-.4221 0-.5487-.5056-.9286v-.0844l1.1798-.4643.1264.0422v2.9123c.5056-.2954 1.1376-.5909 1.6854-.5909 1.1376 0 1.9382 1.0552 1.9382 2.1104 0 1.815-1.6433 2.6169-2.7809 2.6169-.6321 0-1.0534-.1688-1.6012-.4221v-5.1915zm.7584 3.461c0 .9708.0843 1.8571 1.3062 1.8571.5478 0 1.4747-.4642 1.4747-1.8571 0-1.224-.8005-2.026-1.8118-2.026-.337 0-.632.0844-.9691.2111z"/><path d="m74.8258 77.0853c-.0842 1.0552.6321 2.0682 1.8118 2.0682.5478 0 .8849-.2533 1.222-.6331l.1685.1266c-.3792.6753-1.0955 1.1818-1.8961 1.1818-1.264 0-2.1489-1.0552-2.1489-2.2792 0-1.3085.927-2.4481 2.2753-2.4481.927 0 1.5169.5909 1.559 1.5195h-2.9494zm2.0225-.7597c-.0843-.4643-.3792-1.013-.927-1.013-.5898 0-.9269.5909-1.0533 1.0974z"/><path d="m82.6208 76.5788c0-.4221 0-.5487-.5056-.9286v-.0844l1.2219-.4643.1264.0422-.0843.7598c.5899-.4221 1.1377-.802 1.8118-.802 1.2219 0 1.3062 1.013 1.3062 1.6039v1.815c0 .8441.0421.9285.8006 1.0129v.1689h-2.3596v-.1689c.7584-.1266.8006-.2532.8006-1.0129v-1.1819c0-.7175.0421-1.7305-1.222-1.7305-.4213 0-.7162.1267-1.0533.4221v2.4481c0 .8441.0421.9285.8005 1.0129v.1689h-2.4438v-.1689c.7163-.0422.8006-.211.8006-1.0129z"/><path d="m140.495 88.9506 9.1-9.7882-8.233-8.9618h6.221l5.162 5.5665 5.176-5.5665h6.237l-8.255 8.9665 9.072 9.7829h-6.392l-5.836-6.3545-5.847 6.3545z"/><path d="m110.98 78.1715c-.179-.6957-.635-1.2011-1.534-1.2011-1.318 0-1.87 1.1407-1.87 2.3011s.553 2.3035 1.87 2.3035c.955 0 1.483-.7038 1.571-1.5829h1.052c-.089 1.4448-1.131 2.4456-2.623 2.4456-1.843 0-2.946-1.4383-2.946-3.1667 0-1.7285 1.103-3.1645 2.946-3.1645 1.389.0081 2.481.7589 2.611 2.065z"/><path d="m113.6 80.3554c0 .6875.378 1.295 1.195 1.295.569 0 .917-.2455 1.086-.7259h.931c-.215.9539-1.041 1.4883-2.017 1.4883-1.397 0-2.179-.9591-2.179-2.3017 0-1.2469.829-2.3116 2.154-2.3116 1.404 0 2.268 1.2446 2.102 2.5559zm2.292-.6354c-.037-.6074-.459-1.1586-1.122-1.1586-.662 0-1.146.5076-1.17 1.1586z"/><path d="m117.641 76.2492h.983v6.0452h-.983z"/><path d="m120.331 80.3554c0 .6875.378 1.295 1.198 1.295.567 0 .911-.2455 1.083-.7259h.932c-.218.9539-1.042 1.4883-2.015 1.4883-1.396 0-2.179-.9591-2.179-2.3017 0-1.2469.825-2.3116 2.151-2.3116 1.404 0 2.265 1.2446 2.101 2.5559zm2.292-.6354c-.037-.6074-.46-1.1586-1.122-1.1586-.663 0-1.147.5076-1.17 1.1586z"/><path d="m124.343 76.2492h.98v2.2373h.019c.267-.4241.827-.6864 1.326-.6864 1.407 0 2.086 1.0514 2.086 2.3267 0 1.1766-.603 2.2866-1.92 2.2866-.605 0-1.248-.1439-1.543-.7183h-.017v.5999h-.931zm2.198 2.3122c-.83 0-1.25.6196-1.25 1.5503 0 .8801.455 1.5387 1.25 1.5387.895 0 1.232-.7792 1.232-1.5387 0-.7978-.425-1.5503-1.232-1.5503z"/><path d="m129.625 77.9167h.924v.8448h.015c.112-.4665.7-.962 1.301-.962.223 0 .286.0169.371.025v.9301c-.138-.018-.286-.0424-.423-.0424-.671 0-1.206.535-1.206 1.4975v2.0847h-.981z"/><path d="m133 76.2492h.985v.9144h-.985zm0 1.6681h.985v4.3777h-.985z"/><path d="m134.819 77.9167h.741v-1.3118h.982v1.3118h.886v.7183h-.886v2.3371c0 .3975.03.6023.473.6023.138 0 .276 0 .413-.0348v.7467c-.216.0151-.422.0493-.638.0493-1.025 0-1.215-.3905-1.23-1.1163v-2.5837h-.741z"/><path d="m138.012 77.9167h1.076l1.164 3.2678h.017l1.13-3.2678h1.025l-1.733 4.6139c-.32.7873-.554 1.498-1.577 1.498-.231 0-.456-.0174-.681-.0487v-.8146c.156.0244.312.0592.466.0592.458 0 .567-.2379.691-.6116l.11-.3365-1.687-4.3597z"/><path d="m167.509 78.1715c-.185-.6957-.638-1.2011-1.537-1.2011-1.316 0-1.87 1.1407-1.87 2.3011s.554 2.3035 1.87 2.3035c.957 0 1.484-.7038 1.57-1.5829h1.052c-.088 1.4448-1.129 2.4456-2.621 2.4456-1.843 0-2.948-1.4383-2.948-3.1667 0-1.7285 1.105-3.1645 2.948-3.1645 1.389.0081 2.481.7589 2.611 2.065z"/><path d="m169.478 77.9167h.924v.8448h.018c.113-.4665.7-.962 1.301-.962.225 0 .287.0169.373.025v.9301c-.144-.018-.286-.0424-.424-.0424-.671 0-1.208.535-1.208 1.4975v2.0847h-.984z"/><path d="m176.81 82.2944h-.962v-.611h-.018c-.242.4375-.775.73-1.268.73-1.163 0-1.662-.5768-1.662-1.7204v-2.7757h.986v2.6841c0 .7693.317 1.0496.85 1.0496.818 0 1.094-.5164 1.094-1.1935v-2.5396h.98v4.3777z"/><path d="m177.966 76.2492h.983v.9144h-.983zm0 1.6681h.983v4.3777h-.983z"/><path d="m180.926 80.888c.049.5587.481.7618 1.004.7618.371 0 1.021-.0754.991-.5756-.026-.5059-.741-.5663-1.456-.7293-.72-.1485-1.427-.4032-1.427-1.2927 0-.9597 1.049-1.2532 1.858-1.2532.915 0 1.74.3719 1.866 1.3426h-1.028c-.085-.4549-.474-.5808-.906-.5808-.284 0-.809.0696-.809.4496 0 .4729.724.5408 1.448.7009.714.1619 1.438.4143 1.438 1.2794 0 1.0391-1.07 1.4215-1.988 1.4215-1.124 0-1.958-.492-1.977-1.5248z"/><path d="m185.461 80.3554c0 .6875.384 1.295 1.2 1.295.572 0 .914-.2455 1.086-.7259h.932c-.218.9539-1.042 1.4883-2.018 1.4883-1.395 0-2.177-.9591-2.177-2.3017 0-1.2469.827-2.3116 2.151-2.3116 1.408 0 2.267 1.2446 2.106 2.5559zm2.295-.6354c-.033-.6074-.457-1.1586-1.122-1.1586-.664 0-1.144.5076-1.173 1.1586z"/><path d="m190.446 80.888c.052.5587.481.7618 1.006.7618.371 0 1.018-.0754.993-.5756-.025-.5059-.742-.5663-1.458-.7293-.723-.1485-1.43-.4032-1.43-1.2927 0-.9597 1.054-1.2532 1.862-1.2532.914 0 1.74.3719 1.863 1.3426h-1.027c-.086-.4549-.473-.5808-.903-.5808-.287 0-.812.0696-.812.4496 0 .4729.726.5408 1.447.7009.716.1619 1.44.4143 1.44 1.2794 0 1.0391-1.07 1.4215-1.987 1.4215-1.121 0-1.959-.492-1.975-1.5248h.983z"/><path d="m195.321 77.7995c.656 0 1.179.5269 1.179 1.1784 0 .6516-.523 1.1848-1.183 1.1848s-1.19-.521-1.19-1.1848c0-.6637.534-1.1784 1.19-1.1784zm-.004.1863c-.527 0-.959.4438-.959.9927s.432 1.0003.962 1.0003c.534.0035.963-.4404.963-.9945s-.429-.9985-.963-.9985zm-.223 1.6791h-.215v-1.3153c.112-.0163.217-.0302.378-.0302.202 0 .336.0424.416.0998.079.058.124.1468.124.271 0 .1734-.118.2808-.26.3196v.0105c.115.022.195.1271.222.3208.03.2037.064.2803.083.3238h-.222c-.034-.0441-.066-.163-.092-.3354-.031-.1682-.116-.2297-.29-.2297h-.145zm0-.7276h.151c.179 0 .327-.0626.327-.2257 0-.1149-.085-.2303-.327-.2303-.07 0-.114.0064-.151.011z"/><g clip-rule="evenodd" fill-rule="evenodd"><path d="m218.488 81.6113-.783.6452c-.968-1.3826-1.889-1.1061-2.764-1.7974-.829-.6452-1.197-1.7053-2.349-2.074 1.013-1.0139 2.487-1.7053 3.316-2.7653 1.566.6452 1.659 2.1662 3.363 2.6731l-1.152 1.014c.553.507 1.152.507 1.612 1.2444l-.645.553c-.967-1.3826-2.855-1.1983-3.638-2.8575l.645-.5069c.276.3687.691.8757 1.243 1.1522l.553-.4609c-.875-.3226-1.152-1.2905-1.888-1.6592-.461.5992-1.244.8296-1.797 1.3827.599.5069.921 1.1061 1.382 1.5209.691.6913 2.119.7835 2.902 1.9357z"/><path d="m216.231 83.5931c-1.06-1.9357-3.132-1.1522-3.731-3.0879l.737-.6453c.599 1.7053 2.671 1.3366 3.731 2.9958z"/><path d="m221.942 83.04-.414-1.7053.46-.046c.553 1.06 1.566 1.6592 2.58 1.6131 1.105-.0461 2.303-.507 2.303-1.4288.046-1.06-1.52-1.2444-2.396-1.567-1.427-.4609-2.579-1.1061-2.625-2.2583-.046-1.4288 1.981-2.1662 3.316-2.1201.829 0 1.428.1383 2.027.2765l.553 1.1983-.369.1383c-.368-.6452-1.197-1.06-2.211-1.06-.783 0-1.888.4608-1.888 1.2443 0 1.0601 1.474 1.1984 2.395 1.521 1.29.4148 2.671 1.06 2.533 2.4887-.138 1.6592-2.211 2.0279-3.731 2.074-.783.0461-1.704-.1382-2.533-.3687z"/><path d="m229.496 75.758h3.178v7.5586h-1.704v-6.222c0-.4148-.323-.7835-.783-.7835h-.691z"/><path d="m280.161 81.5191c-.046.9218-1.197 1.3826-2.303 1.4287-.053.0013-.107.0025-.161.0038-1.972.046-3.935.0918-5.504-1.4786-.599-.6452-1.244-1.2444-2.073-1.7053 1.014-.3226 2.119-1.1061 2.073-2.3044-.046-1.06-1.566-1.7053-2.533-1.7053h-6.034v.5992h.645c.46 0 .783.3687.783.7835v6.2219h1.704v-3.5027h1.244c.938 0 1.792.9064 2.517 1.6756.2.2119.389.4135.569.5827 1.658 1.5671 4.652 1.5671 6.678 1.4749 1.52-.0461 3.593-.5531 3.731-2.2123.138-1.4287-1.152-2.0279-2.533-2.4888-.187-.0652-.396-.1229-.61-.1823-.848-.2339-1.785-.493-1.785-1.3386.046-.7835 1.151-1.2444 1.888-1.2444 1.013 0 1.888.4148 2.257 1.0601l.368-.1383-.552-1.1983c-.599-.1383-1.198-.2765-2.027-.2765-1.336-.0461-3.362.6913-3.316 2.12 0 1.1523 1.151 1.7975 2.579 2.2584.176.065.381.1243.594.1864.847.246 1.838.5341 1.801 1.3806zm-11.376-2.3505h-1.981v-2.8575h1.981c.644 0 1.566.5531 1.612 1.1983 0 .8757-.645 1.6592-1.612 1.6592z"/><path d="m237.833 82.7635h3.638c.829 0 1.843-.6913 2.119-1.5209l.415.1843-.737 1.8897c-2.395 0-4.744 0-7.093 0v-6.222c0-.4148-.323-.7835-.783-.7835h-.691v-.5992h3.132z"/><path d="m256.763 78.9842h3.961l.507 1.1983-.415.2305c-.414-.7374-1.105-.9679-1.796-.9679h-2.211v3.3184h3.593c.829 0 1.842-.6913 2.118-1.5209l.415.1843-.737 1.8897c-2.395 0-4.744 0-7.093 0v-6.222c0-.4148-.322-.7835-.783-.7835h-.691v-.5992h8.106l.323 1.3827-.369.1383c-.414-.7835-1.243-1.014-1.98-1.014h-2.902v2.7653z"/><path d="m286.011 78.9842h3.961l.507 1.1983-.415.2305c-.415-.7374-1.105-.9679-1.796-.9679h-2.211v3.3184h3.592c.83 0 1.843-.6913 2.119-1.5209l.415.1843-.737 1.8897c-2.395 0-4.744 0-7.093 0v-6.222c0-.4148-.323-.7835-.783-.7835h-.691v-.5992h8.106l.323 1.3827-.369.1383c-.414-.7835-1.243-1.014-1.98-1.014h-2.902v2.7653z"/><path d="m247.091 83.3626-3.915-6.1758c-.277-.4148-.737-.8296-1.244-.8296h-.599v-.5992h2.994l3.547 6.0376 2.901-4.7932c.139-.2304.046-.6913-.414-.6913h-.783v-.507h2.809l-4.559 7.6046h-.737z"/><path d="m295.775 83.3166v-.6453h-.829c-.414 0-.829-.1382-.552-.6452l.921-1.6131h3.869l1.704 2.9036h1.612l-4.422-7.6047h-3.132v.5531h.737c.507 0 .875.3687.645.8296l-3.454 6.222zm2.948-3.5949h-.001c.001.0007.001.0007.001 0zm-.001 0c-.053-.0448-1.611-2.6732-1.611-2.6732l-1.428 2.6732z"/></g><path d="m.5 36.5756h75v1h-75z"/><path d="m227.5 36.5756h75v1h-75z"/></g></svg>