<svg width="303" height="25" viewBox="0 0 303 25" fill="none" xmlns="http://www.w3.org/2000/svg">
<g clip-path="url(#clip0_112_7763)">
<path d="M89.3202 16.5823H22.5365V17.0043H89.3202V16.5823Z" fill="white"/>
<path d="M90.4157 23.7154H0.5V1.42966H90.4157V23.7154ZM0.921348 23.2933H89.9944V1.85173H0.921348V23.2933Z" fill="white"/>
<path d="M22.7472 23.7154H0.5V1.42966H22.7472V23.7154ZM0.921348 23.2933H22.3258V1.85173H0.921348V23.2933Z" fill="white"/>
<path d="M90.4157 23.7154H22.3258V16.54H90.4157V23.7154ZM22.7472 23.2933H89.9944V16.9621H22.7472V23.2933Z" fill="white"/>
<path d="M26.3286 18.7348H26.75V21.7316H26.3286V18.7348Z" fill="white"/>
<path d="M29.8258 18.7348H30.4157L31.7219 21.1407V18.7348H32.1433V21.7316H31.5955L30.2472 19.2835V21.7316H29.8258V18.7348Z" fill="white"/>
<path d="M35.8511 19.1147H34.882V18.7348H37.1994V19.1147H36.2725V21.7316H35.8511V19.1147Z" fill="white"/>
<path d="M39.9382 18.7348H41.6236V19.1147H40.4017V20.0011H41.5393V20.381H40.4017V21.3517H41.6236V21.7316H39.9382V18.7348Z" fill="white"/>
<path d="M44.6152 18.7348H45.3315C45.9213 18.7348 46.5112 18.8193 46.5112 19.5368C46.5112 19.9167 46.2584 20.1699 45.8792 20.2121C46.0056 20.2543 46.0899 20.3387 46.1742 20.5076L46.7219 21.6894H46.2163L45.7528 20.6342C45.6264 20.3387 45.4579 20.3387 45.2472 20.3387H44.9944V21.6894H44.573V18.7348H44.6152ZM45.0365 20.0433H45.4157C45.8371 20.0433 46.0477 19.8745 46.0477 19.579C46.0477 19.3258 45.8371 19.1569 45.4579 19.1569H45.0365V20.0433Z" fill="white"/>
<path d="M49.5871 18.7348H50.1348L51.4831 21.1407V18.7348H51.9045V21.7316H51.3567L50.0084 19.2835V21.7316H49.5871V18.7348Z" fill="white"/>
<path d="M55.9494 18.7348H56.4129L57.677 21.7316H57.2135L56.9185 20.9719H55.4438L55.1489 21.7316H54.6854L55.9494 18.7348ZM56.1601 19.1569L55.5702 20.6342H56.75L56.1601 19.1569Z" fill="white"/>
<path d="M60.6685 19.1147H59.7416V18.7348H62.059V19.1147H61.0899V21.7316H60.6685V19.1147Z" fill="white"/>
<path d="M64.7977 18.7348H65.2191V21.7316H64.7977V18.7348Z" fill="white"/>
<path d="M69.559 18.6926C70.4859 18.6926 70.9916 19.368 70.9916 20.2543C70.9916 21.1829 70.4438 21.816 69.559 21.816C68.632 21.816 68.1264 21.1829 68.1264 20.2543C68.1264 19.368 68.6742 18.6926 69.559 18.6926ZM69.559 21.3939C70.2331 21.3939 70.5281 20.803 70.5281 20.2121C70.5281 19.6212 70.191 19.0303 69.559 19.0303C68.8848 19.0303 68.5899 19.579 68.5899 20.2121C68.5899 20.8452 68.8848 21.3939 69.559 21.3939Z" fill="white"/>
<path d="M73.941 18.7348H74.5309L75.8371 21.1407V18.7348H76.3006V21.7316H75.7528L74.3624 19.2835V21.7316H73.941V18.7348Z" fill="white"/>
<path d="M80.3034 18.7348H80.7668L82.0309 21.7316H81.5674L81.2725 20.9719H79.7977L79.5028 21.7316H79.0393L80.3034 18.7348ZM80.514 19.1569L79.9241 20.6342H81.1039L80.514 19.1569Z" fill="white"/>
<path d="M84.7697 18.7348H85.191V21.3517H86.455V21.7316H84.7697V18.7348Z" fill="white"/>
<path d="M11.6657 4.76407C12.4663 5.52381 13.309 6.32576 14.0674 7.12771L13.1826 8.26732V8.30952L15.5421 9.36472L17.1432 8.26732L16.1741 7.21212V7.12771C17.1432 6.45238 17.9859 5.77706 18.955 5.10173L18.4494 9.87121H4.79774L4.33426 5.10173C5.30336 5.73485 6.14606 6.41017 7.11516 7.12771V7.21212L6.14606 8.26732L7.74718 9.36472L10.1067 8.30952V8.26732L9.2219 7.12771C9.98033 6.32576 10.8652 5.52381 11.6236 4.76407H11.6657Z" fill="white"/>
<path d="M18.3652 10.7154L18.1966 12.3193H13.1404V17.8063H15.6264C16.1742 17.8063 16.764 17.2154 16.6376 16.8355C16.5112 16.2868 16.0056 15.9069 15.5421 15.6537C15.6264 15.6537 17.3118 14.3874 18.1124 13.881C18.0702 14.2186 17.5225 18.6926 17.5225 18.7771L11.6657 21.0141H11.5815L5.72472 18.7349C5.72472 18.6504 5.13483 14.1764 5.13483 13.8387C5.93539 14.3874 7.62078 15.6115 7.70505 15.6115C7.24157 15.9069 6.73595 16.2446 6.60955 16.7933C6.48314 17.1732 7.07303 17.7641 7.62078 17.7641H10.1067V12.2771H5.05056L4.88202 10.7154H18.3652Z" fill="white"/>
<path d="M26.2865 7.88746C26.2865 6.32577 26.2444 6.07252 25.1067 5.98811V5.86148L27.5927 5.77707C30.1629 5.69265 30.3736 6.95888 30.3736 7.42317C30.3736 8.26733 29.8258 8.77382 29.1095 9.11148L29.1517 9.1959C29.9522 10.5888 30.9213 12.3193 32.6067 12.6991L32.5225 12.7836C31.427 12.7414 30.6264 12.7836 30.0365 12.1504C29.3624 11.4329 28.8146 10.5465 28.6039 10.1245C28.1826 9.28031 27.8455 9.53356 27.1292 9.40694V11.053C27.1292 12.1927 27.1292 12.3615 28.5618 12.5725V12.7414H24.9803V12.5725C26.2022 12.4037 26.2022 12.1082 26.2444 11.053V7.88746H26.2865ZM27.1713 9.1959C28.1404 9.1959 29.2781 8.73161 29.2781 7.592C29.2781 6.41018 28.2247 5.90369 27.1713 5.9459V9.1959Z" fill="white"/>
<path d="M34.0393 12.8258C32.6489 12.8258 31.5112 11.9394 31.5112 10.5043C31.5112 9.11148 32.6489 8.1407 34.0393 8.1407C35.4298 8.1407 36.5253 9.02706 36.5253 10.4621C36.5674 11.8128 35.3876 12.8258 34.0393 12.8258ZM34.0393 8.30953C32.9438 8.30953 32.4803 9.44914 32.4803 10.3777C32.4803 11.3485 33.0281 12.5725 34.1236 12.5725C35.1348 12.5725 35.5983 11.3907 35.5983 10.5043C35.5983 9.57577 35.1348 8.30953 34.0393 8.30953Z" fill="white"/>
<path d="M36.9045 9.11148C36.7359 8.6472 36.6938 8.56278 36.1882 8.47836V8.30953H38.2949V8.47836C37.5365 8.52057 37.705 8.98486 37.9157 9.49135L38.927 12.1082L39.559 10.2511C40.0225 8.94265 40.1067 8.56278 39.3483 8.47836V8.30953H41.118V8.47836C40.6545 8.52057 40.5281 8.73161 40.3174 9.11148L39.8961 10.0823L38.3371 14.0498C37.9579 15.0206 37.705 15.316 37.2837 15.316C36.9888 15.316 36.7781 15.105 36.7781 14.8095C36.7781 14.5985 36.9045 14.3875 37.1152 14.3452C37.1994 14.3875 37.5365 14.6407 37.6629 14.6407C37.8736 14.6407 38.0843 14.092 38.1264 13.9232L38.4635 13.1212L36.9045 9.11148Z" fill="white"/>
<path d="M43.1404 10.1667C43.2247 9.06927 42.9298 8.60499 42.1292 8.60499C41.4129 8.60499 41.4972 8.94265 41.4972 9.49135L40.9916 9.53356C40.9073 9.53356 40.7388 9.53356 40.7388 9.44914C40.7388 9.15369 41.8764 8.0985 42.677 8.0985C43.6039 8.0985 43.8989 8.81603 43.8989 9.61798V11.053C43.8989 11.9394 43.8146 12.5303 44.7837 12.3615V12.5725C44.4045 12.6991 44.0674 12.6991 43.7725 12.6991C43.3511 12.6991 43.1826 12.4459 43.1404 12.066C42.8034 12.4459 42.382 12.7414 41.8343 12.7414C41.2022 12.7414 40.823 12.1927 40.823 11.5595C40.823 11.3907 40.823 11.2641 40.8652 11.0952L43.1404 10.1667ZM41.75 11.0952C41.7079 11.2219 41.6657 11.3485 41.6657 11.5173C41.6657 11.9394 41.9185 12.3193 42.382 12.3193C42.677 12.3193 42.9298 12.1504 43.0983 11.9394V10.3777L41.75 11.0952Z" fill="white"/>
<path d="M44.3624 12.6991V12.4459C45.0786 12.3615 45.1629 12.1926 45.1629 11.5173V7.16992C45.1629 6.74784 45.1629 6.62122 44.6573 6.24135V6.15694L45.8371 5.69265L45.9635 5.73486V11.5173C45.9635 12.3615 46.0056 12.4459 46.764 12.5303V12.6991H44.3624Z" fill="white"/>
<path d="M56.3708 10.1667C56.4551 9.06927 56.1601 8.60499 55.3595 8.60499C54.6433 8.60499 54.7275 8.94265 54.7275 9.49135L54.2219 9.53356C54.1376 9.53356 53.9691 9.53356 53.9691 9.44914C53.9691 9.15369 55.1067 8.0985 55.9073 8.0985C56.8343 8.0985 57.1292 8.81603 57.1292 9.61798V11.053C57.1292 11.9394 57.0449 12.5725 58.014 12.3615V12.5725C57.6348 12.6991 57.2978 12.6991 57.0028 12.6991C56.5815 12.6991 56.4129 12.4459 56.3708 12.066C56.0337 12.4459 55.6124 12.7414 55.0646 12.7414C54.4326 12.7414 54.0534 12.1927 54.0534 11.5595C54.0534 11.3907 54.0534 11.2641 54.0955 11.0952L56.3708 10.1667ZM54.9803 11.0952C54.9382 11.2219 54.8961 11.3485 54.8961 11.5173C54.8961 11.9394 55.1489 12.3193 55.6124 12.3193C55.9073 12.3193 56.1601 12.1504 56.3286 11.9394V10.3777L54.9803 11.0952Z" fill="white"/>
<path d="M53.3792 7.84525H53.2107C53 6.70563 52.3258 5.86148 51.1039 5.86148C49.25 5.86148 48.1966 7.38096 48.1966 9.15369C48.1966 11.1797 49.7556 12.5725 51.2303 12.5725C52.5786 12.5725 53.0843 11.6017 53.5477 10.5043L53.6741 10.5465C53.5477 11.1797 53.3371 11.7706 53.1264 12.3615C52.4944 12.6991 51.7781 12.7836 51.0618 12.7836C48.9129 12.7836 47.0168 11.5595 47.0168 9.2381C47.0168 7.42317 48.4494 5.56602 51.1461 5.56602C51.9045 5.56602 52.705 5.73486 53.3792 6.11473V7.84525Z" fill="white"/>
<path d="M80.5983 10.1667C80.6826 9.06927 80.3876 8.60499 79.5871 8.60499C78.8708 8.60499 78.9551 8.94265 78.9551 9.49135L78.4494 9.53356C78.3652 9.53356 78.1966 9.53356 78.1966 9.44914C78.1966 9.15369 79.3343 8.0985 80.1348 8.0985C81.0618 8.0985 81.3567 8.81603 81.3567 9.61798V11.053C81.3567 11.9394 81.2303 12.5303 82.1573 12.4881V12.6569C81.7781 12.7836 81.5253 12.7414 81.2303 12.7414C80.809 12.7414 80.6405 12.4881 80.5983 12.1082C80.2612 12.4881 79.8399 12.7836 79.2921 12.7836C78.618 12.7836 78.2809 12.2349 78.2809 11.6017C78.2809 11.4329 78.2809 11.3063 78.323 11.1375L80.5983 10.1667ZM79.25 11.0952C79.2079 11.2219 79.1657 11.3485 79.1657 11.5173C79.1657 11.9394 79.4185 12.3193 79.882 12.3193C80.177 12.3193 80.4298 12.1504 80.5983 11.9394V10.3777L79.25 11.0952Z" fill="white"/>
<path d="M59.1517 11.5173C59.1517 12.3615 59.1938 12.4459 60.1629 12.5303V12.6991H57.5927V12.4459C58.2668 12.4037 58.309 12.2349 58.3511 11.4329V9.57577C58.3511 9.15369 58.3511 9.02707 57.8455 8.6472V8.56278L59.0674 8.0985L59.1938 8.1407L59.1517 9.36473C59.3623 8.81603 59.9522 8.0985 60.5843 8.0985C60.8792 8.0985 61.0899 8.26733 61.0899 8.56278C61.0899 8.85824 60.7949 9.11148 60.5421 9.1959C60.3736 9.06927 60.1208 8.85824 59.9101 8.85824C59.0253 8.94265 59.1095 10.3355 59.1095 10.5043V11.5173H59.1517Z" fill="white"/>
<path d="M61.4691 12.6991V12.5303C62.2275 12.4037 62.2697 12.2771 62.2697 11.5173V9.57577C62.2697 9.15369 62.2697 9.02707 61.6376 8.6472V8.56278L62.9438 8.09849L63.0702 8.1407V11.5173C63.0702 12.3615 63.1123 12.4459 63.8708 12.5303V12.6991H61.4691ZM63.1123 6.36797C63.1123 6.66343 62.8595 6.87447 62.6067 6.87447C62.3118 6.87447 62.1011 6.62122 62.1011 6.36797C62.1011 6.07252 62.3539 5.86148 62.6067 5.86148C62.8595 5.86148 63.1123 6.11473 63.1123 6.36797Z" fill="white"/>
<path d="M64.2079 7.16992C64.2079 6.74784 64.2079 6.62122 63.7022 6.24135V6.15694L64.882 5.69265L65.0084 5.73486V8.6472C65.514 8.35174 66.1461 8.05629 66.6938 8.05629C67.8315 8.05629 68.632 9.11148 68.632 10.1667C68.632 11.9816 66.9888 12.7836 65.8511 12.7836C65.2191 12.7836 64.7977 12.6147 64.2079 12.3615V7.16992ZM64.9663 10.631C64.9663 11.6017 65.0506 12.4881 66.2725 12.4881C66.8202 12.4881 67.7472 12.0238 67.7472 10.631C67.7472 9.40693 66.9466 8.60499 65.9354 8.60499C65.5983 8.60499 65.3034 8.6894 64.9663 8.81603V10.631Z" fill="white"/>
<path d="M69.0955 7.16992C69.0955 6.74784 69.0955 6.62122 68.5899 6.24135V6.15694L69.7696 5.69265L69.896 5.73486V8.6472C70.4017 8.35174 71.0337 8.05629 71.5814 8.05629C72.7191 8.05629 73.5196 9.11148 73.5196 10.1667C73.5196 11.9816 71.8764 12.7836 70.7387 12.7836C70.1067 12.7836 69.6854 12.6147 69.1376 12.3615V7.16992H69.0955ZM69.8539 10.631C69.8539 11.6017 69.9382 12.4881 71.1601 12.4881C71.7078 12.4881 72.6348 12.0238 72.6348 10.631C72.6348 9.40693 71.8342 8.60499 70.823 8.60499C70.4859 8.60499 70.191 8.6894 69.8539 8.81603V10.631Z" fill="white"/>
<path d="M74.8258 10.0823C74.7416 11.1375 75.4578 12.1504 76.6376 12.1504C77.1854 12.1504 77.5225 11.8972 77.8595 11.5173L78.0281 11.644C77.6489 12.3193 76.9326 12.8258 76.132 12.8258C74.868 12.8258 73.9831 11.7706 73.9831 10.5465C73.9831 9.23811 74.9101 8.0985 76.2584 8.0985C77.1854 8.0985 77.7753 8.6894 77.8174 9.61798H74.868L74.8258 10.0823ZM76.8483 9.32252C76.764 8.85824 76.4691 8.30953 75.9213 8.30953C75.3314 8.30953 74.9944 8.90044 74.868 9.40694L76.8483 9.32252Z" fill="white"/>
<path d="M82.6208 9.57577C82.6208 9.15369 82.6208 9.02707 82.1152 8.6472V8.56278L83.3371 8.0985L83.4635 8.1407L83.3792 8.90044C83.9691 8.47837 84.5169 8.0985 85.191 8.0985C86.4129 8.0985 86.4972 9.11148 86.4972 9.70239V11.5173C86.4972 12.3615 86.5393 12.4459 87.2978 12.5303V12.6991H84.9382V12.5303C85.6966 12.4037 85.7388 12.2771 85.7388 11.5173V10.3355C85.7388 9.61798 85.7809 8.60499 84.5168 8.60499C84.0955 8.60499 83.8006 8.73161 83.4635 9.02707V11.4751C83.4635 12.3193 83.5056 12.4037 84.264 12.4881V12.6569H81.8202V12.4881C82.5365 12.4459 82.6208 12.2771 82.6208 11.4751V9.57577Z" fill="white"/>
</g>
<g clip-path="url(#clip1_112_7763)">
<path d="M140.495 21.9475L149.595 12.1594L141.362 3.19751H147.583L152.745 8.76403L157.921 3.19751H164.158L155.903 12.164L164.975 21.9469H158.583L152.747 15.5925L146.9 21.9469H140.494L140.495 21.9475Z" fill="white"/>
<path d="M110.98 11.1684C110.801 10.4727 110.345 9.96738 109.446 9.96738C108.128 9.96738 107.576 11.1081 107.576 12.2685C107.576 13.4289 108.129 14.5719 109.446 14.5719C110.401 14.5719 110.929 13.8681 111.017 12.9891H112.069C111.98 14.4338 110.938 15.4347 109.446 15.4347C107.603 15.4347 106.5 13.9963 106.5 12.2679C106.5 10.5395 107.603 9.10345 109.446 9.10345C110.835 9.11157 111.927 9.86236 112.057 11.1684H110.98Z" fill="white"/>
<path d="M113.6 13.3523C113.6 14.0399 113.978 14.6473 114.795 14.6473C115.364 14.6473 115.712 14.4019 115.881 13.9215H116.812C116.597 14.8754 115.771 15.4097 114.795 15.4097C113.398 15.4097 112.616 14.4506 112.616 13.108C112.616 11.8612 113.445 10.7965 114.77 10.7965C116.174 10.7965 117.038 12.041 116.872 13.3523H113.6ZM115.892 12.717C115.855 12.1095 115.433 11.5583 114.77 11.5583C114.108 11.5583 113.624 12.066 113.6 12.717H115.892Z" fill="white"/>
<path d="M117.641 9.24618H118.624V15.2914H117.641V9.24618Z" fill="white"/>
<path d="M120.331 13.3523C120.331 14.0399 120.709 14.6473 121.529 14.6473C122.096 14.6473 122.44 14.4019 122.612 13.9215H123.544C123.326 14.8754 122.502 15.4097 121.529 15.4097C120.133 15.4097 119.35 14.4506 119.35 13.108C119.35 11.8612 120.175 10.7965 121.501 10.7965C122.905 10.7965 123.766 12.041 123.602 13.3523H120.331ZM122.623 12.717C122.586 12.1095 122.163 11.5583 121.501 11.5583C120.838 11.5583 120.354 12.066 120.331 12.717H122.623Z" fill="white"/>
<path d="M124.343 9.24618H125.323V11.4835H125.342C125.609 11.0593 126.169 10.7971 126.668 10.7971C128.075 10.7971 128.754 11.8484 128.754 13.1237C128.754 14.3004 128.151 15.4103 126.834 15.4103C126.229 15.4103 125.586 15.2664 125.291 14.692H125.274V15.2919H124.343V9.24618ZM126.541 11.5583C125.711 11.5583 125.291 12.178 125.291 13.1086C125.291 13.9888 125.746 14.6473 126.541 14.6473C127.436 14.6473 127.773 13.8681 127.773 13.1086C127.773 12.3108 127.348 11.5583 126.541 11.5583Z" fill="white"/>
<path d="M129.625 10.9137H130.549V11.7585H130.564C130.676 11.292 131.264 10.7965 131.865 10.7965C132.088 10.7965 132.151 10.8133 132.236 10.8214V11.7515C132.098 11.7335 131.95 11.7092 131.813 11.7092C131.142 11.7092 130.607 12.2441 130.607 13.2067V15.2914H129.626L129.625 10.9137Z" fill="white"/>
<path d="M133 9.24618H133.985V10.1606H133V9.24618ZM133 10.9143H133.985V15.2919H133V10.9143Z" fill="white"/>
<path d="M134.819 10.9137H135.56V9.60185H136.542V10.9137H137.428V11.632H136.542V13.9691C136.542 14.3665 136.572 14.5713 137.015 14.5713C137.153 14.5713 137.291 14.5713 137.428 14.5365V15.2832C137.212 15.2983 137.006 15.3326 136.79 15.3326C135.765 15.3326 135.575 14.9421 135.56 14.2162V11.6326H134.819V10.9137Z" fill="white"/>
<path d="M138.012 10.9137H139.088L140.252 14.1814H140.269L141.399 10.9137H142.424L140.691 15.5275C140.371 16.3149 140.137 17.0256 139.114 17.0256C138.883 17.0256 138.658 17.0082 138.433 16.9769V16.1623C138.589 16.1866 138.745 16.2214 138.899 16.2214C139.357 16.2214 139.466 15.9836 139.59 15.6099L139.7 15.2734L138.013 10.9137H138.012Z" fill="white"/>
<path d="M167.509 11.1684C167.324 10.4727 166.871 9.96738 165.972 9.96738C164.656 9.96738 164.102 11.1081 164.102 12.2685C164.102 13.4289 164.656 14.5719 165.972 14.5719C166.929 14.5719 167.456 13.8681 167.542 12.9891H168.594C168.506 14.4338 167.465 15.4347 165.973 15.4347C164.13 15.4347 163.025 13.9963 163.025 12.2679C163.025 10.5395 164.13 9.10345 165.973 9.10345C167.362 9.11157 168.454 9.86236 168.584 11.1684H167.509Z" fill="white"/>
<path d="M169.478 10.9137H170.402V11.7585H170.42C170.533 11.292 171.12 10.7965 171.721 10.7965C171.946 10.7965 172.008 10.8133 172.094 10.8214V11.7515C171.95 11.7335 171.808 11.7092 171.67 11.7092C170.999 11.7092 170.462 12.2441 170.462 13.2067V15.2914H169.478V10.9137Z" fill="white"/>
<path d="M176.81 15.2914H175.848V14.6804H175.83C175.588 15.1179 175.055 15.4103 174.562 15.4103C173.399 15.4103 172.9 14.8336 172.9 13.69V10.9143H173.886V13.5983C173.886 14.3677 174.203 14.6479 174.736 14.6479C175.554 14.6479 175.83 14.1315 175.83 13.4544V10.9149H176.81V15.2925V15.2914Z" fill="white"/>
<path d="M177.966 9.24618H178.949V10.1606H177.966V9.24618ZM177.966 10.9143H178.949V15.2919H177.966V10.9143Z" fill="white"/>
<path d="M180.926 13.8849C180.975 14.4437 181.407 14.6468 181.93 14.6468C182.301 14.6468 182.951 14.5713 182.921 14.0712C182.895 13.5652 182.18 13.5049 181.465 13.3419C180.745 13.1933 180.038 12.9386 180.038 12.0492C180.038 11.0895 181.087 10.7959 181.896 10.7959C182.811 10.7959 183.636 11.1678 183.762 12.1385H182.734C182.649 11.6836 182.26 11.5577 181.828 11.5577C181.544 11.5577 181.019 11.6274 181.019 12.0074C181.019 12.4803 181.743 12.5481 182.467 12.7083C183.181 12.8702 183.905 13.1225 183.905 13.9876C183.905 15.0268 182.835 15.4091 181.917 15.4091C180.793 15.4091 179.959 14.9171 179.94 13.8844L180.926 13.8849Z" fill="white"/>
<path d="M185.461 13.3523C185.461 14.0399 185.845 14.6473 186.661 14.6473C187.233 14.6473 187.575 14.4019 187.747 13.9215H188.679C188.461 14.8754 187.637 15.4097 186.661 15.4097C185.266 15.4097 184.484 14.4506 184.484 13.108C184.484 11.8612 185.311 10.7965 186.635 10.7965C188.043 10.7965 188.902 12.041 188.741 13.3523H185.461ZM187.756 12.717C187.723 12.1095 187.299 11.5583 186.634 11.5583C185.97 11.5583 185.49 12.066 185.461 12.717H187.756Z" fill="white"/>
<path d="M190.446 13.8849C190.498 14.4437 190.927 14.6468 191.452 14.6468C191.823 14.6468 192.47 14.5713 192.445 14.0712C192.42 13.5652 191.703 13.5049 190.987 13.3419C190.264 13.1933 189.557 12.9386 189.557 12.0492C189.557 11.0895 190.611 10.7959 191.419 10.7959C192.333 10.7959 193.159 11.1678 193.282 12.1385H192.255C192.169 11.6836 191.782 11.5577 191.352 11.5577C191.065 11.5577 190.54 11.6274 190.54 12.0074C190.54 12.4803 191.266 12.5481 191.987 12.7083C192.703 12.8702 193.427 13.1225 193.427 13.9876C193.427 15.0268 192.357 15.4091 191.44 15.4091C190.319 15.4091 189.481 14.9171 189.465 13.8844H190.448L190.446 13.8849Z" fill="white"/>
<path d="M195.321 10.7965C195.977 10.7965 196.5 11.3233 196.5 11.9749C196.5 12.6265 195.977 13.1597 195.317 13.1597C194.657 13.1597 194.127 12.6387 194.127 11.9749C194.127 11.3111 194.661 10.7965 195.317 10.7965H195.321ZM195.317 10.9827C194.79 10.9827 194.358 11.4266 194.358 11.9755C194.358 12.5244 194.79 12.9758 195.32 12.9758C195.854 12.9792 196.283 12.5354 196.283 11.9813C196.283 11.4272 195.854 10.9827 195.32 10.9827H195.317ZM195.094 12.6619H194.879V11.3465C194.991 11.3303 195.096 11.3164 195.257 11.3164C195.459 11.3164 195.593 11.3587 195.673 11.4162C195.752 11.4742 195.797 11.5629 195.797 11.6871C195.797 11.8606 195.679 11.9679 195.537 12.0068V12.0173C195.652 12.0393 195.732 12.1443 195.759 12.3381C195.789 12.5418 195.823 12.6183 195.842 12.6619H195.62C195.586 12.6178 195.554 12.4988 195.528 12.3265C195.497 12.1582 195.412 12.0967 195.238 12.0967H195.093L195.094 12.6619ZM195.094 11.9343H195.245C195.424 11.9343 195.572 11.8716 195.572 11.7086C195.572 11.5937 195.487 11.4782 195.245 11.4782C195.175 11.4782 195.131 11.4846 195.094 11.4893V11.9343Z" fill="white"/>
</g>
<path fill-rule="evenodd" clip-rule="evenodd" d="M218.488 14.6083L217.705 15.2535C216.737 13.8708 215.816 14.1474 214.941 13.456C214.112 12.8108 213.744 11.7508 212.592 11.3821C213.605 10.3681 215.079 9.67678 215.908 8.61674C217.474 9.26198 217.567 10.7829 219.271 11.2899L218.119 12.3038C218.672 12.8108 219.271 12.8108 219.731 13.5482L219.086 14.1013C218.119 12.7186 216.231 12.903 215.448 11.2438L216.093 10.7368C216.369 11.1055 216.784 11.6125 217.336 11.889L217.889 11.4281C217.014 11.1055 216.737 10.1377 216.001 9.76896C215.54 10.3681 214.757 10.5986 214.204 11.1516C214.803 11.6586 215.125 12.2577 215.586 12.6725C216.277 13.3639 217.705 13.456 218.488 14.6083Z" fill="white"/>
<path fill-rule="evenodd" clip-rule="evenodd" d="M216.231 16.5901C215.171 14.6543 213.099 15.4378 212.5 13.5021L213.237 12.8569C213.836 14.5622 215.908 14.1935 216.968 15.8526L216.231 16.5901Z" fill="white"/>
<path fill-rule="evenodd" clip-rule="evenodd" d="M221.942 16.037L221.528 14.3317L221.988 14.2856C222.541 15.3456 223.554 15.9448 224.568 15.8987C225.673 15.8526 226.871 15.3917 226.871 14.47C226.917 13.4099 225.351 13.2256 224.475 12.903C223.048 12.4421 221.896 11.7968 221.85 10.6446C221.804 9.21587 223.831 8.47845 225.166 8.52454C225.995 8.52454 226.594 8.66281 227.193 8.80107L227.746 9.99938L227.377 10.1376C227.009 9.4924 226.18 9.07761 225.166 9.07761C224.383 9.07761 223.278 9.53849 223.278 10.322C223.278 11.382 224.752 11.5203 225.673 11.8429C226.963 12.2577 228.344 12.903 228.206 14.3317C228.068 15.9909 225.995 16.3596 224.475 16.4057C223.692 16.4518 222.771 16.2674 221.942 16.037Z" fill="white"/>
<path fill-rule="evenodd" clip-rule="evenodd" d="M229.496 8.75499H232.674V16.3135H230.97V10.0916C230.97 9.67676 230.647 9.30805 230.187 9.30805H229.496V8.75499Z" fill="white"/>
<path fill-rule="evenodd" clip-rule="evenodd" d="M280.161 14.516C280.115 15.4378 278.964 15.8987 277.858 15.9448C277.805 15.946 277.751 15.9473 277.697 15.9485C275.725 15.9946 273.762 16.0404 272.193 14.47C271.594 13.8247 270.949 13.2256 270.12 12.7647C271.134 12.4421 272.239 11.6586 272.193 10.4603C272.147 9.40022 270.627 8.75497 269.66 8.75497H263.626V9.35413H264.271C264.731 9.35413 265.054 9.72283 265.054 10.1376V16.3596H266.758V12.8569H268.002C268.94 12.8569 269.794 13.7633 270.519 14.5324C270.719 14.7444 270.908 14.9459 271.088 15.1152C272.746 16.6822 275.74 16.6822 277.766 16.59C279.286 16.5439 281.359 16.037 281.497 14.3778C281.635 12.949 280.345 12.3499 278.964 11.889C278.777 11.8237 278.568 11.766 278.354 11.7067C277.506 11.4727 276.569 11.2137 276.569 10.3681C276.615 9.58457 277.72 9.12368 278.457 9.12368C279.47 9.12368 280.345 9.53848 280.714 10.1837L281.082 10.0455L280.53 8.84715C279.931 8.70889 279.332 8.57062 278.503 8.57062C277.167 8.52453 275.141 9.26195 275.187 10.6907C275.187 11.8429 276.338 12.4881 277.766 12.949C277.942 13.014 278.147 13.0734 278.36 13.1354C279.207 13.3815 280.198 13.6695 280.161 14.516ZM268.785 12.1656H266.804V9.30807H268.785C269.429 9.30807 270.351 9.86113 270.397 10.5064C270.397 11.3821 269.752 12.1656 268.785 12.1656Z" fill="white"/>
<path fill-rule="evenodd" clip-rule="evenodd" d="M237.833 15.7604H241.471C242.3 15.7604 243.314 15.0691 243.59 14.2395L244.005 14.4239L243.268 16.3135C240.873 16.3135 238.524 16.3135 236.175 16.3135V10.0916C236.175 9.67676 235.852 9.30805 235.392 9.30805H234.701V8.7089H237.833V15.7604Z" fill="white"/>
<path fill-rule="evenodd" clip-rule="evenodd" d="M256.763 11.9812H260.724L261.231 13.1795L260.816 13.4099C260.402 12.6725 259.711 12.4421 259.02 12.4421H256.809V15.7604H260.402C261.231 15.7604 262.244 15.0691 262.52 14.2395L262.935 14.4239L262.198 16.3135C259.803 16.3135 257.454 16.3135 255.105 16.3135V10.0916C255.105 9.67676 254.783 9.30805 254.322 9.30805H253.631V8.7089C256.349 8.7089 259.02 8.7089 261.737 8.7089L262.06 10.0916L261.691 10.2298C261.277 9.44632 260.448 9.21587 259.711 9.21587H256.809V11.9812H256.763Z" fill="white"/>
<path fill-rule="evenodd" clip-rule="evenodd" d="M286.011 11.9812H289.972L290.479 13.1795L290.064 13.4099C289.649 12.6725 288.959 12.4421 288.268 12.4421H286.057V15.7604H289.649C290.479 15.7604 291.492 15.0691 291.768 14.2395L292.183 14.4239L291.446 16.3135C289.051 16.3135 286.702 16.3135 284.353 16.3135V10.0916C284.353 9.67676 284.03 9.30805 283.57 9.30805H282.879V8.7089C285.596 8.7089 288.268 8.7089 290.985 8.7089L291.308 10.0916L290.939 10.2298C290.525 9.44632 289.695 9.21587 288.959 9.21587H286.057V11.9812H286.011Z" fill="white"/>
<path fill-rule="evenodd" clip-rule="evenodd" d="M247.091 16.3596L243.176 10.1837C242.899 9.76893 242.439 9.35414 241.932 9.35414H241.333V8.75499H244.327L247.874 14.7926L250.775 9.99938C250.914 9.76894 250.821 9.30805 250.361 9.30805H249.578V8.80107H252.387L247.828 16.4057H247.091V16.3596Z" fill="white"/>
<path fill-rule="evenodd" clip-rule="evenodd" d="M295.775 16.3135V15.6683H294.946C294.532 15.6683 294.117 15.53 294.394 15.023L295.315 13.4099H299.184L300.888 16.3135H302.5L298.078 8.7089H294.946V9.26196H295.683C296.19 9.26196 296.558 9.63067 296.328 10.0916L292.874 16.3135H295.775ZM298.723 12.7186H298.722C298.723 12.7194 298.723 12.7194 298.723 12.7186ZM298.722 12.7186C298.669 12.6738 297.111 10.0455 297.111 10.0455L295.683 12.7186H298.722Z" fill="white"/>
<defs>
<clipPath id="clip0_112_7763">
<rect width="90" height="22.2857" fill="white" transform="translate(0.5 1.42966)"/>
</clipPath>
<clipPath id="clip1_112_7763">
<rect width="90" height="18.75" fill="white" transform="translate(106.5 3.19751)"/>
</clipPath>
</defs>
</svg>
