<svg width="86" height="74" viewBox="0 0 86 74" fill="none" xmlns="http://www.w3.org/2000/svg">
<g id="Play" opacity="0.2">
<path id="Union" fill-rule="evenodd" clip-rule="evenodd" d="M74.1914 55.1207L85.3687 62.6784L83.1281 65.992L0.0438232 9.81361L2.28436 6.5L13.8823 14.3421C20.5681 5.90907 30.9024 0.5 42.5 0.5C62.6584 0.5 79 16.8416 79 37C79 43.595 77.251 49.7814 74.1914 55.1207ZM70.8669 52.8729C73.4992 48.1787 75 42.7646 75 37C75 19.0507 60.4493 4.5 42.5 4.5C32.2816 4.5 23.1646 9.21587 17.2067 16.5899L33.5 27.6068V24.0057C33.5 23.1996 34.4049 22.7248 35.0682 23.1828L53.9083 36.1918C54.484 36.5894 54.484 37.4401 53.9083 37.8376L51.2972 39.6406L70.8669 52.8729ZM35.0682 50.8466L44.7697 44.1478L33.5 36.5277V50.0237C33.5 50.8298 34.4049 51.3046 35.0682 50.8466ZM10 37C10 31.9205 11.1653 27.1132 13.2431 22.8308L9.89853 20.5693C7.40474 25.5076 6.00002 31.0898 6.00002 37C6.00002 57.1584 22.3416 73.5 42.5 73.5C53.4076 73.5 63.1977 68.7154 69.8861 61.1305L66.5417 58.8692C60.5972 65.4005 52.0273 69.5 42.5 69.5C24.5508 69.5 10 54.9493 10 37Z" fill="#9DA4AC"/>
</g>
</svg>
